<svg xmlns="http://www.w3.org/2000/svg" width="1200" height="700" viewBox="0 0 1200 700">
<rect width="100%" height="100%" fill="#ffffff"/>
<text x="600" y="35" font-family="Arial" font-size="22" font-weight="bold" text-anchor="middle" fill="#111827">Promedio mensual de nivel_m</text>
<line x1="90" y1="570" x2="990" y2="570" stroke="#374151" stroke-width="1"/>
<line x1="90" y1="570" x2="90" y2="70" stroke="#374151" stroke-width="1"/>
<line x1="90" y1="170.0" x2="990" y2="170.0" stroke="#e5e7eb" stroke-width="1"/>
<line x1="90" y1="270.0" x2="990" y2="270.0" stroke="#e5e7eb" stroke-width="1"/>
<line x1="90" y1="370.0" x2="990" y2="370.0" stroke="#e5e7eb" stroke-width="1"/>
<line x1="90" y1="470.0" x2="990" y2="470.0" stroke="#e5e7eb" stroke-width="1"/>
<text x="540" y="660" font-family="Arial" font-size="14" font-weight="normal" text-anchor="middle" fill="#111827">Mes</text>
<text x="20" y="330" font-family="Arial" font-size="14" font-weight="normal" text-anchor="middle" fill="#111827">Nivel promedio (m)</text>
<text x="80" y="574.0" font-family="Arial" font-size="11" font-weight="normal" text-anchor="end" fill="#4b5563">0.30</text>
<text x="80" y="474.0" font-family="Arial" font-size="11" font-weight="normal" text-anchor="end" fill="#4b5563">0.43</text>
<text x="80" y="374.0" font-family="Arial" font-size="11" font-weight="normal" text-anchor="end" fill="#4b5563">0.57</text>
<text x="80" y="274.0" font-family="Arial" font-size="11" font-weight="normal" text-anchor="end" fill="#4b5563">0.70</text>
<text x="80" y="174.0" font-family="Arial" font-size="11" font-weight="normal" text-anchor="end" fill="#4b5563">0.83</text>
<text x="80" y="74.0" font-family="Arial" font-size="11" font-weight="normal" text-anchor="end" fill="#4b5563">0.96</text>
<polyline points="90.00,312.64 171.82,351.68 253.64,387.74 335.45,395.93 417.27,373.33 499.09,298.16 580.91,262.81 662.73,330.95 744.55,388.63 826.36,395.41 908.18,326.45 990.00,317.27" fill="none" stroke="#2563eb" stroke-width="1.5"/>
<rect x="1020" y="80" width="12" height="12" fill="#2563eb"/>
<text x="1040" y="90" font-family="Arial" font-size="12" font-weight="normal" text-anchor="start" fill="#111827">El_Batan</text>
<polyline points="90.00,200.20 171.82,218.97 253.64,164.13 335.45,194.68 417.27,197.56 499.09,170.05 580.91,171.47 662.73,205.30 744.55,235.58 826.36,225.04 908.18,188.86 990.00,202.58" fill="none" stroke="#16a34a" stroke-width="1.5"/>
<rect x="1020" y="124" width="12" height="12" fill="#16a34a"/>
<text x="1040" y="134" font-family="Arial" font-size="12" font-weight="normal" text-anchor="start" fill="#111827">La_Lindosa</text>
<polyline points="90.00,468.28 171.82,486.80 253.64,415.66 335.45,446.44 417.27,449.93 499.09,469.69 580.91,537.37 662.73,555.32 744.55,542.86 826.36,495.96 908.18,404.18 990.00,388.51" fill="none" stroke="#9333ea" stroke-width="1.5"/>
<rect x="1020" y="146" width="12" height="12" fill="#9333ea"/>
<text x="1040" y="156" font-family="Arial" font-size="12" font-weight="normal" text-anchor="start" fill="#111827">Las_Juntas</text>
<polyline points="90.00,504.09 171.82,521.50 253.64,466.28 335.45,490.73 417.27,518.96 499.09,532.11 580.91,547.67 662.73,565.05 744.55,570.00 826.36,547.20 908.18,492.84 990.00,529.10" fill="none" stroke="#ea580c" stroke-width="1.5"/>
<rect x="1020" y="168" width="12" height="12" fill="#ea580c"/>
<text x="1040" y="178" font-family="Arial" font-size="12" font-weight="normal" text-anchor="start" fill="#111827">Los_Micos</text>
<polyline points="90.00,283.96 171.82,248.46 253.64,256.05 335.45,229.77 417.27,218.12 499.09,143.31 580.91,184.40 662.73,291.29 744.55,237.04 826.36,276.55 908.18,264.08 990.00,342.97" fill="none" stroke="#0891b2" stroke-width="1.5"/>
<rect x="1020" y="190" width="12" height="12" fill="#0891b2"/>
<text x="1040" y="200" font-family="Arial" font-size="12" font-weight="normal" text-anchor="start" fill="#111827">Puente_Bruselas</text>
<polyline points="90.00,70.00 171.82,89.20 253.64,98.92 335.45,131.34 417.27,229.58 499.09,223.10 580.91,128.62 662.73,127.72 744.55,268.74 826.36,255.93 908.18,222.59 990.00,211.13" fill="none" stroke="#4f46e5" stroke-width="1.5"/>
<rect x="1020" y="234" width="12" height="12" fill="#4f46e5"/>
<text x="1040" y="244" font-family="Arial" font-size="12" font-weight="normal" text-anchor="start" fill="#111827">San_Benito</text>
</svg>
